<?xml version="1.0" encoding="UTF-8"?>
<svg id="Layer_2" data-name="Layer 2" xmlns="http://www.w3.org/2000/svg" viewBox="0 0 396.85 396.85">
  <defs>
    <style>
      .cls-1 {
        fill: #801517;
      }
    </style>
  </defs>
  <g id="Layer_1-2" data-name="Layer 1">
    <path class="cls-1" d="m0,193.99c.18-1.61.4-3.22.54-4.84,1.83-21.25,9.45-40.18,22.72-56.85,15.07-18.92,34.44-31.1,57.87-36.87,3.54-.87,7.17-1.36,10.78-1.9,1.14-.17,1.47-.67,1.63-1.73,4.76-32.75,21.23-58.06,48.96-75.84C157.52,6.33,174.17,1.12,192.07.17c30.22-1.6,56.42,7.98,78.68,28.4,8.47,7.77,15.44,16.73,20.82,26.91.21.41.38.84.67,1.48-1.87.14-3.52.37-5.18.38-7.79.04-15.59-.04-23.38.05-2.12.02-3.63-.68-4.99-2.29-9.26-10.98-20.66-18.88-34.23-23.63-27.95-9.79-58.6-3.15-80.19,17.3-13.35,12.65-21.44,28.1-23.81,46.25-3.22,24.7,3.62,46.46,20.6,64.81,12.77,13.8,28.68,21.69,47.23,24.25,3.46.48,6.99.65,10.49.68,32.27.21,64.54.35,96.81.51.42,0,.84.04,1.35.07v27.27h-26.76c18.39,17.56,29.46,38.53,33.29,63.63,4-1.05,7.98-1.77,11.74-3.13,28.67-10.39,47.12-30.13,53.01-60.32,7.66-39.25-14.97-76.78-52.92-89.6-35.24-11.9-75.84,4.06-93.63,37.34-1.38,2.58-2.64,5.23-3.88,7.88-.36.77-.78,1.04-1.62,1.02-9.66-.13-19.33-.25-28.99-.31-1.34,0-1.79-.37-1.79-1.78.04-29.8.03-59.59.03-89.39,0-.52,0-1.04,0-1.65h27.21v49.87c.11.06.21.12.32.18.53-.57,1.04-1.16,1.59-1.71,16.48-16.89,36.25-27.67,59.62-31.11,34.77-5.12,65.17,4.35,90.68,28.71,16.93,16.16,27.29,36.01,30.67,59.06,4.94,33.63-3.73,63.52-26.85,88.75-15.48,16.9-34.63,27.5-57.09,32.07-2.16.44-4.36.74-6.54,1.05-.92.13-1.34.43-1.48,1.49-3.28,24.6-13.97,45.51-31.75,62.7-15.57,15.05-34.22,24.19-55.54,27.96-8.05,1.42-16.18,1.84-24.28,1.33-13.8-.87-26.98-4.31-39.45-10.41-19.72-9.65-34.9-24.12-46.05-42.95-.75-1.27-1.54-2.52-2.43-3.98.73-.04,1.23-.08,1.73-.08,7.65,0,15.3,0,22.95,0,1.3,0,2.59-.04,3.89-.12,2.45-.15,4.29.77,5.89,2.67,6.31,7.51,13.76,13.69,22.43,18.33,12.87,6.88,26.59,10.15,41.2,9.46,35.95-1.7,60.73-25.6,69.55-49.5,11.68-31.64,5.9-60.21-17.32-84.77-11.91-12.6-26.94-19.78-44.04-22.41-4.72-.73-9.57-.79-14.36-.95-8.07-.27-16.15-.51-24.22-.53-23.76-.07-47.52-.02-71.28-.02h-1.63v-27.33h28.24c-18.6-17.45-29.73-38.44-33.53-63.31-6.4,1.03-12.49,2.63-18.23,5.24-25.88,11.76-41.92,31.54-46.91,59.6-5.93,33.39,11.07,66.94,41.25,82.69,12.47,6.5,25.77,9.75,39.75,8.82,32.15-2.14,55.09-18.14,68.9-47.21,1.01-2.12,2.02-2.8,4.31-2.77,9.28.14,18.57.09,27.85.02,1.38-.01,1.95.52,2.01,1.73.12,2.25.22,4.51.23,6.77.05,7.12.05,14.25.07,21.37.04,17.23.09,34.46.11,51.69,0,2.98-.09,5.96-.17,8.94-.05,1.87-.24,2.09-2.15,2.27-1.43.14-2.88.23-4.32.23-5.87,0-11.74.03-17.6-.08-3.28-.06-3.28-.16-3.28-3.47v-47.59c-2.61,2.56-4.99,5.05-7.53,7.37-15.67,14.3-33.9,23.49-54.9,26.77-26.96,4.21-52.1-.96-74.89-15.99-23.85-15.74-39.06-37.76-45.34-65.72-1.28-5.69-1.63-11.6-2.41-17.4-.06-.46-.19-.91-.29-1.37,0-2.89,0-5.78,0-8.66Z"/>
  </g>
</svg>