<?xml version="1.0" encoding="UTF-8"?>
<svg id="Layer_2" data-name="Layer 2" xmlns="http://www.w3.org/2000/svg" viewBox="0 0 1348.5 221.96">
  <defs>
    <style>
      .cls-1 {
        fill: #801414;
      }
    </style>
  </defs>
  <g id="Layer_1-2" data-name="Layer 1">
    <g>
      <path class="cls-1" d="m104.89.16h5.34c5.79,0,11.13.33,16.03,1,24.94,4.01,41.64,16.03,50.11,36.08l-19.04,8.35c-.89-4.45-1.95-8.35-3.17-11.69-1.23-3.34-3.06-6.9-5.51-10.69-2.45-3.78-5.9-6.96-10.36-9.52-4.46-2.56-9.69-4.39-15.7-5.51-4.01-.44-8.13-.67-12.36-.67-3.79,0-7.57.33-11.36,1-18.04,3.56-32.79,14.48-44.26,32.74-11.47,18.26-17.2,41.54-17.2,69.81,0,30.51,6.62,55.01,19.88,73.49,13.25,18.49,30.56,28.39,51.94,29.73h1c4.45,0,8.57-.33,12.36-1h.33c2.22-.44,4.45-1,6.68-1.67,3.78-1.34,6.29-3.01,7.52-5.01,1.22-2,1.84-4.56,1.84-7.68.67-12.24.78-37.63.33-76.16l-.33-.67c0-3.56-.89-6.85-2.67-9.85-1.78-3.01-3.67-5.06-5.68-6.18l-2.67-1.67h41.75c1.78,0,3.34.67,4.68,2,1.34,1.34,2,2.9,2,4.68v73.49c0,6.91-2.79,13.03-8.35,18.37-5.57,5.34-11.97,9.3-19.21,11.86-7.24,2.56-15.31,4.51-24.22,5.85-4.46.89-9.24,1.34-14.36,1.34-2,0-4.23-.11-6.68-.33-32.74-1.34-58.18-11.69-76.33-31.07C9.07,171.19,0,144.69,0,111.06c0-21.82,4.9-41.14,14.7-57.96,9.8-16.81,22.55-29.61,38.25-38.41C68.64,5.9,85.96,1.06,104.89.16Z"/>
      <path class="cls-1" d="m237.16,6.85v207.44h62.46c7.35-.44,16.03-2.45,26.05-6.01l.67,13.36c-7.35.22-16.26.22-26.72,0h-100.21V18.2c0-3.78-.89-7.18-2.67-10.19-1.79-3.01-3.67-5.06-5.68-6.18l-2.67-1.67h41.75c1.78,0,3.39.67,4.84,2,1.45,1.34,2.17,2.9,2.17,4.68Z"/>
      <path class="cls-1" d="m353.07,221.63h-8.02L421.22,11.86c-1.56-2.22-3.56-4.34-6.01-6.35-2.45-2-4.46-3.45-6.01-4.34l-2.34-1h40.75c5.34,0,8.9,2.45,10.69,7.35l77.83,214.12h-37.41l-34.74-95.53h-76.16l-34.74,95.53ZM425.89,21.54l-35.41,97.2h70.82l-35.41-97.2Z"/>
      <path class="cls-1" d="m545.82.16h36.74c2,0,3.89.67,5.68,2,1.78,1.34,3.01,2.9,3.67,4.68l81.17,203.76L750.25,12.52c-.67-2.45-1.89-4.73-3.67-6.85-1.78-2.11-3.34-3.51-4.68-4.18l-2-1.34h41.75c1.78,0,3.39.67,4.84,2,1.45,1.34,2.17,2.9,2.17,4.68v214.79h-37.41V31.23l-74.16,189.73.33.67h-37.41l-78.16-196.75v196.75h-7.35V18.2c0-3.78-.73-7.18-2.17-10.19-1.45-3.01-2.84-5.06-4.18-6.18l-2.34-1.67Z"/>
      <path class="cls-1" d="m900.56,221.3c-26.05-2.45-47.6-13.47-64.64-33.07-17.04-19.59-25.55-44.98-25.55-76.16s8.24-58.01,24.72-78.5c16.48-20.49,39.3-31.51,68.48-33.07,2.22-.22,4.23-.33,6.01-.33h4.34c30.28,1.12,53.89,11.92,70.82,32.4,16.92,20.49,25.39,46.99,25.39,79.5s-9.02,58.29-27.06,78c-18.04,19.71-40.87,30.23-68.48,31.57h-5.01c-2.9,0-5.9-.11-9.02-.33Zm8.35-213.78c-40.75,2.9-61.13,37.75-61.13,104.55,0,30.06,5.56,54.23,16.7,72.49,11.13,18.26,25.16,28.17,42.09,29.73h3.01c2.45,0,4.9-.11,7.35-.33,16.25-2.67,29.61-13.08,40.08-31.23,10.46-18.15,15.7-41.7,15.7-70.65,0-65.91-19.93-100.65-59.79-104.22-1.34-.22-2.45-.33-3.34-.33h-.67Z"/>
      <path class="cls-1" d="m1115.35.16c14.7,0,28.28,2.79,40.75,8.35,12.47,5.57,22.71,14.2,30.73,25.89,8.02,11.69,12.03,25.33,12.03,40.92,0,13.59-3.51,25.95-10.52,37.08-7.01,11.14-16.43,20.04-28.23,26.72l30.06,82.51h-37.41l-26.39-71.82c-4.01.67-7.68,1-11.02,1h-44.43v70.82h-37.75V18.2c0-3.78-.89-7.18-2.67-10.19-1.79-3.01-3.67-5.06-5.68-6.18l-2.67-1.67h41.75c1.78,0,3.39.67,4.84,2,1.45,1.34,2.17,2.9,2.17,4.68v10.36c12.91-11.36,27.73-17.04,44.43-17.04Zm49.77,75.16c0-20.04-4.07-35.91-12.19-47.6-8.13-11.69-18.65-18.31-31.57-19.88-2.23-.22-4.23-.33-6.01-.33-17.37,0-32.18,6.8-44.43,20.38v115.58h44.43c1.34,0,3.12-.11,5.34-.33,12.91-1.78,23.55-8.79,31.9-21.04,8.35-12.24,12.53-27.83,12.53-46.77Z"/>
      <path class="cls-1" d="m1210.55.16h111.23c10.24-.22,19.15-.22,26.72,0l-.67,13.36c-10.25-3.56-18.93-5.56-26.05-6.01h-62.46v99.54h53.45v7.68h-53.45v99.54h62.46c7.35-.44,16.03-2.45,26.05-6.01l.67,13.36c-7.35.22-16.26.22-26.72,0h-100.21V18.2c0-3.78-.89-7.18-2.67-10.19-1.79-3.01-3.67-5.06-5.68-6.18l-2.67-1.67Z"/>
    </g>
  </g>
</svg>